<svg width="390" height="296" viewBox="0 0 390 296" fill="none" xmlns="http://www.w3.org/2000/svg">
<g clip-path="url(#clip0_20_519)">
<path d="M253.498 63.8414C249.341 56.9569 244.415 49.6059 236.7 47.3578C227.766 44.7545 218.589 49.9263 210.804 55.0296C187.524 70.2917 165.105 86.8315 143.649 104.573L143.673 104.841L193.785 101.38C205.853 100.547 218.337 99.5981 229.002 93.8812C233.049 91.7128 236.994 88.8142 241.58 88.6123C247.278 88.3614 252.246 92.3461 256.151 96.5092C279.246 121.136 285.929 158.795 311.839 180.432C295.501 140.085 275.993 101.099 253.498 63.8414Z" fill="#F2F2F2"/>
<path d="M389.989 263.33H387.702C367.792 237.43 349.06 210.679 331.503 183.078C319.242 163.82 307.59 144.191 296.547 124.188C295.897 123.01 295.248 121.831 294.601 120.649C290.031 112.301 285.568 103.898 281.212 95.438C277.354 87.9478 273.583 80.4143 269.899 72.8374C268.848 70.672 267.823 68.5005 266.804 66.319C264.403 61.1969 262.05 56.0446 259.519 50.9903C256.966 45.8828 253.919 40.5637 249.584 36.7263C249.027 36.2261 248.444 35.7551 247.839 35.3149C247.152 34.811 246.431 34.3558 245.681 33.9526C245.607 33.9092 245.53 33.8711 245.453 33.8277C243.622 32.8493 241.605 32.2668 239.534 32.118C235.225 31.8357 231.252 33.6213 227.512 35.5643C221.202 38.8589 214.989 42.3433 208.871 46.0178C188.544 58.2494 169.364 72.2958 151.563 87.9856L151.427 88.1048C128.217 108.515 107.471 131.574 89.6129 156.812C89.0655 157.594 87.7755 156.845 88.3285 156.065C90.4965 152.987 92.7099 149.944 94.9686 146.935C111.813 124.491 130.983 103.896 152.159 85.4945C154.527 83.4319 156.923 81.3985 159.346 79.394C171.24 69.5335 183.698 60.3742 196.655 51.9627C200.622 49.3847 204.635 46.8844 208.693 44.4617C211.382 42.8498 214.088 41.2703 216.813 39.7233C220.26 37.7694 223.724 35.8372 227.247 34.0296C230.7 32.2492 234.364 30.6535 238.31 30.5941C241.153 30.5421 243.961 31.2263 246.463 32.5805C246.537 32.6238 246.62 32.662 246.696 32.7106C248.224 33.5673 249.644 34.6061 250.923 35.8043C256.653 41.1178 260.485 49.4548 263.466 55.8539C264.968 59.0834 266.487 62.2987 268.025 65.4998C273.83 77.6631 279.861 89.7178 286.118 101.664C289.462 108.042 292.87 114.392 296.341 120.715C296.872 121.698 297.414 122.68 297.956 123.657C310.499 146.349 323.83 168.585 337.948 190.362C354.713 216.219 371.365 239.373 389.989 263.33Z" fill="#E4E4E4"/>
<path d="M269.671 261.669C269.671 261.669 269.903 256.799 274.661 257.365L269.671 261.669Z" fill="#71635D"/>
<path d="M268.328 257.035C269.644 257.035 270.71 255.967 270.71 254.65C270.71 253.332 269.644 252.265 268.328 252.265C267.013 252.265 265.947 253.332 265.947 254.65C265.947 255.967 267.013 257.035 268.328 257.035Z" fill="#148768"/>
<path d="M268.613 258.665H267.94V263.377H268.613V258.665Z" fill="#71635D"/>
<path d="M107.987 118.487C107.987 119.68 107.948 120.863 107.871 122.035C107.438 128.799 105.732 135.419 102.842 141.548C102.82 141.6 102.793 141.649 102.771 141.697C102.637 141.981 102.498 142.266 102.357 142.546C101.497 144.279 100.543 145.964 99.5002 147.593C94.7349 155.072 88.2033 161.259 80.4827 165.61C72.762 169.961 64.0901 172.34 55.2331 172.538L55.767 203.285L62.7304 199.614L63.9737 201.98L55.8193 206.28L56.8162 263.385L56.8274 264.148L51.4433 265.348L51.4545 264.581L53.1496 172.542C46.0206 172.439 38.9829 170.92 32.4452 168.071C25.9074 165.223 19.9999 161.103 15.0655 155.949C14.7258 155.598 14.3897 155.235 14.0611 154.876C14.0462 154.861 14.035 154.846 14.0238 154.835C9.9126 150.346 6.58767 145.194 4.18915 139.596C4.24142 139.656 4.29742 139.712 4.34969 139.772C-1.07101 127.079 -1.43864 112.791 3.32215 99.835C8.08293 86.8793 17.6116 76.2373 29.9557 70.0897C30.1424 69.9962 30.3328 69.9065 30.5195 69.813C42.7299 63.9237 56.7045 62.8431 69.6732 66.7854C82.6419 70.7276 93.6581 79.405 100.538 91.0975C100.867 91.6509 101.184 92.2154 101.49 92.7837C105.764 100.674 107.998 109.511 107.987 118.487Z" fill="#E5E5E5"/>
<path d="M100.719 141.726C139.803 141.726 171.487 110 171.487 70.8632C171.487 31.7265 139.803 0 100.719 0C61.634 0 29.9496 31.7265 29.9496 70.8632C29.9496 110 61.634 141.726 100.719 141.726Z" fill="#22A781"/>
<path opacity="0.2" d="M48.4652 23.5322C33.1013 59.5211 49.7806 101.169 85.7219 116.554C99.3579 122.391 114.481 123.792 128.955 120.559C143.428 117.325 156.522 109.621 166.387 98.5335C151.024 134.523 109.433 151.228 73.4921 135.846C37.5511 120.463 20.8673 78.8155 36.2294 42.8266C39.239 35.7755 43.3714 29.2602 48.4656 23.5348L48.4652 23.5322Z" fill="black"/>
<path d="M104.548 268.275L97.3197 266.245L97.3346 265.468L99.5002 147.593L99.6085 141.716L99.6122 141.544L99.9893 120.951L100.538 91.1014V91.0977L100.912 70.8638H101.109L101.49 92.7839L101.987 121.314L102.342 141.559V141.709L102.357 142.542V142.546L103.044 182.008L103.114 185.93L104.533 267.49L104.548 268.275Z" fill="#81726A"/>
<path d="M112.169 177.197L100.471 183.364L102.101 186.465L113.799 180.298L112.169 177.197Z" fill="#71635D"/>
<path d="M99.3326 282.541H65.9634V283.288H99.3326V282.541Z" fill="#CBCBCB"/>
<path d="M160.565 295.252H127.196V296H160.565V295.252Z" fill="#CBCBCB"/>
<path d="M255.776 285.532H222.407V286.279H255.776V285.532Z" fill="#CBCBCB"/>
<path d="M340.169 253.749V231.999C340.169 231.999 348.634 247.419 340.169 253.749Z" fill="#F1F1F1"/>
<path d="M241.057 255.104L225.057 240.395C225.057 240.395 242.125 244.579 241.057 255.104Z" fill="#F1F1F1"/>
<path d="M75.1301 260.342V238.592C75.1301 238.592 83.5949 254.012 75.1301 260.342Z" fill="#F1F1F1"/>
<path d="M75.6528 260.338L59.6523 245.629C59.6523 245.629 76.7207 249.813 75.6528 260.338Z" fill="#F1F1F1"/>
<path d="M132.63 276.044V248.999C132.63 248.999 143.156 268.173 132.63 276.044Z" fill="#F1F1F1"/>
<path d="M133.28 276.039L113.383 257.749C113.383 257.749 134.607 262.951 133.28 276.039Z" fill="#F1F1F1"/>
<path d="M303.668 272.736L303.463 273.457L240.8 255.586L193.594 266.006L133.223 276.332L133.141 276.31L104.548 268.275L97.3197 266.245L75.2421 260.039L56.8273 264.148L51.4433 265.348L39.738 267.961L39.5775 267.232L51.4545 264.581L56.8161 263.385L75.2645 259.269L75.3541 259.291L97.3346 265.468L104.533 267.49L133.261 275.566L193.448 265.273L240.822 254.816L240.915 254.838L303.668 272.736Z" fill="#CBCBCB"/>
<path d="M191.561 45.4017L196.338 41.5758C192.627 41.1646 191.102 43.1925 190.476 44.7967C187.577 43.5914 184.421 45.1706 184.421 45.1706L193.979 48.6454C193.497 47.3556 192.657 46.2303 191.559 45.4013L191.561 45.4017Z" fill="#71635D"/>
<path d="M313.021 71.1814L317.798 67.3556C314.087 66.9444 312.562 68.9722 311.936 70.5765C309.037 69.3712 305.88 70.9504 305.88 70.9504L315.439 74.4252C314.956 73.1354 314.117 72.0101 313.019 71.1811L313.021 71.1814Z" fill="#71635D"/>
<path d="M181.107 116.811L185.884 112.986C182.173 112.574 180.648 114.602 180.022 116.206C177.123 115.001 173.966 116.58 173.966 116.58L183.525 120.055C183.042 118.765 182.203 117.64 181.105 116.811L181.107 116.811Z" fill="#71635D"/>
<path d="M182.646 213.278C182.997 213.278 183.281 212.566 183.281 211.687C183.281 210.808 182.997 210.096 182.646 210.096C182.295 210.096 182.01 210.808 182.01 211.687C182.01 212.566 182.295 213.278 182.646 213.278Z" fill="#D6D6E3"/>
</g>
<defs>
<clipPath id="clip0_20_519">
<rect width="390" height="296" fill="white"/>
</clipPath>
</defs>
</svg>
