<svg width="100%" height="241" viewBox="0 0 1440 241" preserveAspectRatio="none"
    fill="none" xmlns="http://www.w3.org/2000/svg">
    <g clip-path="url(#clip0_83_12433)">
        <rect width="100%" height="241" transform="matrix(1 0 0 -1 0 241)" fill="white" />
        <path
            d="M0 52.9814L48 47.0907C96 41.1193 192 29.3379 288 27.8047C384 26.3522 480 35.2286 576 35.0672C672 34.9865 768 25.7874 864 16.4268C960 6.9855 1056 -2.69786 1152 0.691315C1248 3.9998 1344 20.4615 1392 28.6116L1440 36.8425V241H1392C1344 241 1248 241 1152 241C1056 241 960 241 864 241C768 241 672 241 576 241C480 241 384 241 288 241C192 241 96 241 48 241H0V52.9814Z"
            fill="#0F5645" />
        <path
            d="M0 52.9814L48 47.0907C96 41.1193 192 29.3379 288 27.8047C384 26.3522 480 35.2286 576 35.0672C672 34.9865 768 25.7874 864 16.4268C960 6.9855 1056 -2.69786 1152 0.691315C1248 3.9998 1344 20.4615 1392 28.6116L1440 36.8425V241H1392C1344 241 1248 241 1152 241C1056 241 960 241 864 241C768 241 672 241 576 241C480 241 384 241 288 241C192 241 96 241 48 241H0V52.9814Z"
            fill="black" fill-opacity="0.2" />
        <path
            d="M0 49.8742L48 44.6324C96 39.3905 192 28.9068 288 19.6328C384 10.3588 480 2.2944 576 6.7298C672 11.1652 768 28.1004 864 36.0035C960 43.9872 1056 42.8582 1152 38.9873C1248 35.1164 1344 28.3423 1392 25.0359L1440 21.6489V241H1392C1344 241 1248 241 1152 241C1056 241 960 241 864 241C768 241 672 241 576 241C480 241 384 241 288 241C192 241 96 241 48 241H0V49.8742Z"
            fill="#11604C" />
        <path
            d="M0 49.8742L48 44.6324C96 39.3905 192 28.9068 288 19.6328C384 10.3588 480 2.2944 576 6.7298C672 11.1652 768 28.1004 864 36.0035C960 43.9872 1056 42.8582 1152 38.9873C1248 35.1164 1344 28.3423 1392 25.0359L1440 21.6489V241H1392C1344 241 1248 241 1152 241C1056 241 960 241 864 241C768 241 672 241 576 241C480 241 384 241 288 241C192 241 96 241 48 241H0V49.8742Z"
            fill="black" fill-opacity="0.2" />
        <path
            d="M0 19.8551L48 32.5266C96 45.1173 192 70.4602 288 74.5764C384 78.7733 480 61.8242 576 58.1923C672 54.5603 768 64.2455 864 70.4602C960 76.5941 1056 79.3383 1152 78.6119C1248 77.9662 1344 73.9307 1392 71.9129L1440 69.8952V241H1392C1344 241 1248 241 1152 241C1056 241 960 241 864 241C768 241 672 241 576 241C480 241 384 241 288 241C192 241 96 241 48 241H0V19.8551Z"
            fill="#126954" />
        <path
            d="M0 19.8551L48 32.5266C96 45.1173 192 70.4602 288 74.5764C384 78.7733 480 61.8242 576 58.1923C672 54.5603 768 64.2455 864 70.4602C960 76.5941 1056 79.3383 1152 78.6119C1248 77.9662 1344 73.9307 1392 71.9129L1440 69.8952V241H1392C1344 241 1248 241 1152 241C1056 241 960 241 864 241C768 241 672 241 576 241C480 241 384 241 288 241C192 241 96 241 48 241H0V19.8551Z"
            fill="black" fill-opacity="0.2" />
        <path
            d="M0 47.2415L48 58.3018C96 69.2815 192 91.4023 288 99.9599C384 108.598 480 103.754 576 97.9416C672 92.2096 768 85.4281 864 76.9511C960 68.4742 1056 58.3018 1152 55.8799C1248 53.4579 1344 58.7862 1392 61.5312L1440 64.1953V241H1392C1344 241 1248 241 1152 241C1056 241 960 241 864 241C768 241 672 241 576 241C480 241 384 241 288 241C192 241 96 241 48 241H0V47.2415Z"
            fill="#14735B" />
        <path
            d="M0 47.2415L48 58.3018C96 69.2815 192 91.4023 288 99.9599C384 108.598 480 103.754 576 97.9416C672 92.2096 768 85.4281 864 76.9511C960 68.4742 1056 58.3018 1152 55.8799C1248 53.4579 1344 58.7862 1392 61.5312L1440 64.1953V241H1392C1344 241 1248 241 1152 241C1056 241 960 241 864 241C768 241 672 241 576 241C480 241 384 241 288 241C192 241 96 241 48 241H0V47.2415Z"
            fill="black" fill-opacity="0.2" />
        <path
            d="M0 98.2645L48 100.442C96 102.538 192 106.893 288 111.732C384 116.57 480 121.892 576 124.715C672 127.537 768 127.86 864 123.102C960 118.425 1056 108.748 1152 101.49C1248 94.2324 1344 89.3939 1392 86.9747L1440 84.5554V241H1392C1344 241 1248 241 1152 241C1056 241 960 241 864 241C768 241 672 241 576 241C480 241 384 241 288 241C192 241 96 241 48 241H0V98.2645Z"
            fill="#167D63" />
        <path
            d="M0 98.2645L48 100.442C96 102.538 192 106.893 288 111.732C384 116.57 480 121.892 576 124.715C672 127.537 768 127.86 864 123.102C960 118.425 1056 108.748 1152 101.49C1248 94.2324 1344 89.3939 1392 86.9747L1440 84.5554V241H1392C1344 241 1248 241 1152 241C1056 241 960 241 864 241C768 241 672 241 576 241C480 241 384 241 288 241C192 241 96 241 48 241H0V98.2645Z"
            fill="black" fill-opacity="0.2" />
        <path
            d="M0 158.621L48 157.571C96 156.44 192 154.341 288 146.507C384 138.672 480 125.266 576 126.154C672 127.123 768 142.468 864 141.257C960 140.045 1056 122.277 1152 117.674C1248 113.151 1344 121.712 1392 126.073L1440 130.354V241H1392C1344 241 1248 241 1152 241C1056 241 960 241 864 241C768 241 672 241 576 241C480 241 384 241 288 241C192 241 96 241 48 241H0V158.621Z"
            fill="#18876B" />
        <path
            d="M0 158.621L48 157.571C96 156.44 192 154.341 288 146.507C384 138.672 480 125.266 576 126.154C672 127.123 768 142.468 864 141.257C960 140.045 1056 122.277 1152 117.674C1248 113.151 1344 121.712 1392 126.073L1440 130.354V241H1392C1344 241 1248 241 1152 241C1056 241 960 241 864 241C768 241 672 241 576 241C480 241 384 241 288 241C192 241 96 241 48 241H0V158.621Z"
            fill="black" fill-opacity="0.2" />
        <path
            d="M0 170.77L48 168.509C96 166.168 192 161.648 288 157.45C384 153.252 480 149.539 576 145.907C672 142.274 768 138.722 864 138.076C960 137.43 1056 139.529 1152 142.355C1248 145.18 1344 148.732 1392 150.427L1440 152.203V241H1392C1344 241 1248 241 1152 241C1056 241 960 241 864 241C768 241 672 241 576 241C480 241 384 241 288 241C192 241 96 241 48 241H0V170.77Z"
            fill="#1B9272" />
        <path
            d="M0 170.77L48 168.509C96 166.168 192 161.648 288 157.45C384 153.252 480 149.539 576 145.907C672 142.274 768 138.722 864 138.076C960 137.43 1056 139.529 1152 142.355C1248 145.18 1344 148.732 1392 150.427L1440 152.203V241H1392C1344 241 1248 241 1152 241C1056 241 960 241 864 241C768 241 672 241 576 241C480 241 384 241 288 241C192 241 96 241 48 241H0V170.77Z"
            fill="black" fill-opacity="0.2" />
        <path
            d="M0 190.923L48 192.539C96 194.154 192 197.385 288 197.627C384 197.95 480 195.204 576 189.55C672 183.897 768 175.335 864 172.185C960 169.116 1056 171.539 1152 176.385C1248 181.231 1344 188.5 1392 192.135L1440 195.77V241H1392C1344 241 1248 241 1152 241C1056 241 960 241 864 241C768 241 672 241 576 241C480 241 384 241 288 241C192 241 96 241 48 241H0V190.923Z"
            fill="#1E9C7A" />
        <path
            d="M0 190.923L48 192.539C96 194.154 192 197.385 288 197.627C384 197.95 480 195.204 576 189.55C672 183.897 768 175.335 864 172.185C960 169.116 1056 171.539 1152 176.385C1248 181.231 1344 188.5 1392 192.135L1440 195.77V241H1392C1344 241 1248 241 1152 241C1056 241 960 241 864 241C768 241 672 241 576 241C480 241 384 241 288 241C192 241 96 241 48 241H0V190.923Z"
            fill="black" fill-opacity="0.2" />
        <path
            d="M0 191.02L48 196.502C96 202.064 192 213.027 288 214.962C384 216.816 480 209.561 576 209.561C672 209.561 768 216.816 864 217.219C960 217.622 1056 211.173 1152 208.11C1248 204.966 1344 205.288 1392 205.369L1440 205.53V241H1392C1344 241 1248 241 1152 241C1056 241 960 241 864 241C768 241 672 241 576 241C480 241 384 241 288 241C192 241 96 241 48 241H0V191.02Z"
            fill="#22A781" />
        <path
            d="M0 191.02L48 196.502C96 202.064 192 213.027 288 214.962C384 216.816 480 209.561 576 209.561C672 209.561 768 216.816 864 217.219C960 217.622 1056 211.173 1152 208.11C1248 204.966 1344 205.288 1392 205.369L1440 205.53V241H1392C1344 241 1248 241 1152 241C1056 241 960 241 864 241C768 241 672 241 576 241C480 241 384 241 288 241C192 241 96 241 48 241H0V191.02Z"
            fill="black" fill-opacity="0.2" />
    </g>
    <defs>
        <clipPath id="clip0_83_12433">
            <rect width="100%" height="241" fill="white" transform="matrix(1 0 0 -1 0 241)" />
        </clipPath>
    </defs>
</svg>