<svg width="302" height="151" viewBox="0 0 302 151" fill="none" xmlns="http://www.w3.org/2000/svg">
<g clip-path="url(#clip0_938_1838)">
<path d="M99.4545 151C90.3419 151 81.2429 150.837 72.1575 150.512C59.1757 150.047 45.7517 149.566 33.2747 142.664C24.5465 137.836 16.8163 130.09 10.92 120.263C6.97906 113.602 4.08938 106.376 2.35247 98.8381C-0.887527 85.1147 -0.777169 70.8161 2.67427 57.1441C3.88378 52.4565 5.55118 47.8985 7.65254 43.5355C16.7515 24.742 33.3474 12.1264 53.1851 8.92377C53.3489 8.90256 53.5145 8.89903 53.6791 8.91324C53.7683 8.91801 53.8573 8.92311 53.9479 8.91933L54.0647 8.88232C54.3639 8.7786 54.6712 8.69993 54.9835 8.64712C85.5783 4.1042 117.921 13.2961 148.514 35.2285C172.168 52.1888 203.517 61.3217 244.351 63.149L244.931 63.1792C256.298 63.8306 267.293 68.5049 276.73 76.6976C286.044 84.7838 293.037 95.5723 296.953 107.897C297.435 109.4 297.876 110.964 298.265 112.546C298.627 114.016 298.602 115.555 298.191 117.012C297.78 118.47 296.998 119.796 295.921 120.863V120.866L295.819 120.97C295.575 121.213 295.317 121.446 295.054 121.662L294.744 121.917C292.134 124.061 290.073 125.755 287.607 127.07C285.961 127.942 284.212 128.601 282.399 129.031C272.449 131.451 262.343 133.694 252.365 135.699C232.985 139.597 213.095 142.812 193.246 145.255C162.13 149.082 130.807 151.001 99.4545 151ZM53.4471 9.57886C53.3862 9.57829 53.3253 9.58242 53.265 9.5912C33.6128 12.7639 17.174 25.2556 8.16524 43.8632C6.08462 48.1829 4.43372 52.6957 3.23623 57.3368C-0.183753 70.8876 -0.292738 85.0592 2.91844 98.6608C4.63835 106.126 7.50001 113.283 11.4029 119.88C17.2415 129.611 24.8926 137.28 33.5293 142.057C45.8944 148.897 59.255 149.376 72.1759 149.838C112.588 151.278 153.05 149.522 193.184 144.585C213.019 142.144 232.897 138.931 252.263 135.036C262.236 133.032 272.334 130.79 282.278 128.372C284.046 127.952 285.754 127.309 287.36 126.459C289.777 125.17 291.818 123.493 294.403 121.369L294.712 121.115C294.939 120.928 295.161 120.729 295.374 120.522L295.435 120.458C297.559 118.323 298.384 115.505 297.701 112.729V112.729C297.316 111.164 296.879 109.616 296.403 108.129C288.402 82.9516 267.706 65.1585 244.902 63.8523L244.326 63.822C225.673 62.9871 209.351 60.6746 194.428 56.7516C176.614 52.0687 161.062 45.0194 148.203 35.7999C117.727 13.9515 85.5195 4.79384 55.0582 9.31521C54.7737 9.36417 54.4937 9.43656 54.2212 9.53165L54.0108 9.59037C53.8913 9.59571 53.7716 9.59428 53.6522 9.58609C53.5819 9.58248 53.5137 9.57886 53.4471 9.57886Z" fill="#F0F0F0"/>
<path d="M94.3323 49.1977C93.4887 48.3905 92.6259 43.8886 91.5489 43.4316C92.3539 45.2062 91.7694 45.6761 91.7651 47.6238C91.7752 48.7297 91.6458 49.8325 91.3797 50.9062H73.135V36.7044C73.135 35.4283 73.3869 34.1647 73.8765 32.9858C74.3661 31.8068 75.0837 30.7356 75.9884 29.8333C76.893 28.931 77.967 28.2152 79.149 27.7269C80.331 27.2386 81.5978 26.9873 82.8772 26.9873C83.3655 26.9968 83.8507 27.0676 84.3212 27.1982C85.8894 27.6205 87.3187 28.4466 88.4657 29.5938C89.6127 30.741 90.4371 32.1689 90.8562 33.7342C92.2471 38.8049 94.4591 47.2454 94.3323 49.1977Z" fill="#2F2E41"/>
<path d="M74.2057 66.6686L74.2147 55.5991L67.6909 56.1806L69.9933 63.1621L68.9157 80.7103C68.3931 80.8273 67.9159 81.0934 67.5423 81.4762C67.1687 81.8591 66.9149 82.342 66.8117 82.8662C66.7085 83.3905 66.7605 83.9333 66.9613 84.4286C67.1621 84.9238 67.5031 85.3501 67.9426 85.6555C68.3821 85.9608 68.9012 86.132 69.4365 86.1482C69.9719 86.1643 70.5004 86.0248 70.9576 85.7465C71.4149 85.4683 71.781 85.0634 72.0115 84.5811C72.242 84.0989 72.3268 83.5602 72.2557 83.0307L74.2057 66.6686Z" fill="#FFB6B6"/>
<path d="M87.0444 145.771L89.6799 145.771L90.9338 135.631H87.0437L87.0444 145.771Z" fill="#FFB6B6"/>
<path d="M86.1516 144.475L90.318 144.227V146.007L94.2791 148.736C94.4747 148.87 94.6221 149.064 94.6996 149.288C94.7771 149.512 94.7808 149.755 94.71 149.982C94.6393 150.208 94.4978 150.406 94.3063 150.547C94.1148 150.687 93.8832 150.763 93.6455 150.763H88.6852L87.8303 149.002L87.4964 150.763H85.6262L86.1516 144.475Z" fill="#2F2E41"/>
<path d="M71.8045 145.771L74.4404 145.771L75.694 135.631H71.8042L71.8045 145.771Z" fill="#FFB6B6"/>
<path d="M70.9121 144.475L75.0785 144.227V146.007L79.0396 148.736C79.2352 148.87 79.3826 149.064 79.4601 149.288C79.5376 149.512 79.5413 149.755 79.4705 149.982C79.3998 150.208 79.2583 150.406 79.0668 150.547C78.8753 150.687 78.6437 150.763 78.406 150.763H73.4457L72.5908 149.002L72.2569 150.763H70.3867L70.9121 144.475Z" fill="#2F2E41"/>
<path d="M84.6972 43.645L79.2372 43.7518L75.3832 47.8095L72.2933 48.2615C70.8956 48.4659 69.6106 49.1427 68.6531 50.1787C67.6956 51.2147 67.1236 52.547 67.0327 53.9531L67.568 56.8858H70.7797L72.6377 67.7668C71.9152 69.6029 71.8661 71.0523 73.3491 71.6216L77.9525 80.2708L91.5488 74.1843C92.2383 73.002 92.4593 71.8144 91.7545 70.6596L92.7264 54.0027H95.9946C95.9946 50.8874 94.9382 48.2611 91.8341 47.9144C90.6015 47.7813 89.3628 47.7107 88.123 47.7027L84.6972 43.645Z" fill="#E6E6E6"/>
<path d="M91.5489 74.1843C91.5489 74.1843 78.2738 76.5335 73.3492 71.6216C73.3492 71.6216 72.8492 72.4682 72.0958 73.8722C71.8792 74.276 71.4608 74.5495 71.208 75.0386C70.9784 75.4831 70.3877 76.0295 70.1375 76.5337C69.9362 76.9392 70.2591 77.4692 70.0497 77.9074C67.5277 83.1835 64.5811 90.626 65.2128 95.5405C65.6202 98.7097 66.4616 106.084 67.3477 114.005C67.4169 114.624 66.8562 115.419 66.9258 116.042C66.9914 116.631 67.6874 117.047 67.753 117.637C67.7966 118.028 67.3105 118.428 67.354 118.819C67.4017 119.248 67.9788 119.668 68.0263 120.095C69.2401 131.032 70.3516 141.243 70.3516 141.243H76.5609L77.7325 117.923L76.775 109.422L79.0232 92.2303L82.1279 108.568L82.5273 117.763L85.8083 141.67H91.5489V118.526L91.9772 117.324L91.5489 115.782L91.9772 114.12L91.5489 112.311V74.1843Z" fill="#2F2E41"/>
<path d="M86.3732 40.4871C85.5274 41.6077 84.3242 42.4076 82.9618 42.7551C81.5994 43.1025 80.1589 42.9768 78.8777 42.3987C77.5964 41.8205 76.5508 40.8244 75.9129 39.5743C75.2751 38.3242 75.0831 36.8948 75.3686 35.5213C75.6541 34.1479 76.4 32.9124 77.4836 32.0183C78.5671 31.1242 79.9236 30.6248 81.3297 30.6024C82.7358 30.5799 84.1076 31.0358 85.2192 31.8948C86.3309 32.7539 87.1161 33.965 87.4455 35.3286C87.4633 35.4026 87.4783 35.4761 87.4929 35.5525C87.6668 36.4072 87.657 37.289 87.464 38.1397C87.271 38.9903 86.8992 39.7904 86.3732 40.4871Z" fill="#FFB6B6"/>
<path d="M85.0826 36.9646C84.9513 36.3074 84.6192 35.7068 84.1319 35.2454C84.18 35.8752 84.0924 36.508 83.875 37.1013C82.2472 37.2451 80.6122 36.922 79.1623 36.1702C78.0703 35.4313 76.6807 35.4953 75.062 36.1702C75.0619 35.3849 75.2169 34.6072 75.5182 33.8817C75.8194 33.1562 76.261 32.4969 76.8177 31.9416C77.3745 31.3864 78.0354 30.9459 78.7628 30.6454C79.4903 30.3449 80.2699 30.1903 81.0572 30.1904H82.1278C83.7177 30.1907 85.2425 30.8208 86.3667 31.9422C87.491 33.0635 88.1227 34.5843 88.123 36.1702C87.1349 36.5236 86.1175 36.7895 85.0826 36.9646Z" fill="#2F2E41"/>
<path d="M38.2459 113.179C47.7581 113.179 55.4692 105.487 55.4692 95.9997C55.4692 86.5121 47.7581 78.8208 38.2459 78.8208C28.7336 78.8208 21.0225 86.5121 21.0225 95.9997C21.0225 105.487 28.7336 113.179 38.2459 113.179Z" fill="#F0F0F0"/>
<path d="M148.003 34.3578C157.515 34.3578 165.226 26.6666 165.226 17.1789C165.226 7.69126 157.515 0 148.003 0C138.49 0 130.779 7.69126 130.779 17.1789C130.779 26.6666 138.49 34.3578 148.003 34.3578Z" fill="#F0F0F0"/>
<path d="M284.777 115.873C294.289 115.873 302 108.182 302 98.6945C302 89.2069 294.289 81.5156 284.777 81.5156C275.264 81.5156 267.553 89.2069 267.553 98.6945C267.553 108.182 275.264 115.873 284.777 115.873Z" fill="#F0F0F0"/>
<path d="M179.072 19.0521V58.0065C179.072 58.8157 178.752 59.5922 178.182 60.1673C177.611 60.7425 176.836 61.0698 176.025 61.0783C176.014 61.0794 176.002 61.0799 175.991 61.0797H171.446C167.809 61.0797 164.32 59.6386 161.749 57.0735C159.177 54.5084 157.732 51.0293 157.732 47.4017V19.0521C157.732 18.2371 158.057 17.4554 158.635 16.8791C159.212 16.3028 159.996 15.979 160.813 15.979H162.655C161.802 18.4617 173.383 19.507 174.019 15.979H175.991C176.808 15.979 177.592 16.3028 178.17 16.8791C178.748 17.4554 179.072 18.2371 179.072 19.0521Z" fill="#22A781"/>
<path d="M165.583 13.0663C165.583 12.9595 165.626 12.8572 165.701 12.7817C165.777 12.7062 165.88 12.6637 165.987 12.6636H168.733C168.839 12.6639 168.942 12.7064 169.017 12.7819C169.093 12.8574 169.135 12.9597 169.135 13.0663C169.135 13.1729 169.093 13.2752 169.017 13.3507C168.942 13.4262 168.839 13.4688 168.733 13.4691H165.987C165.88 13.4689 165.777 13.4265 165.701 13.351C165.626 13.2755 165.583 13.1731 165.583 13.0663Z" fill="#3F3D56"/>
<path d="M176.935 66.021H159.571C158.224 66.0195 156.932 65.4851 155.979 64.535C155.027 63.5848 154.491 62.2966 154.489 60.9529V33.7222C154.394 33.6539 154.316 33.564 154.263 33.4598C154.209 33.3556 154.181 33.2401 154.182 33.1231V30.3844C154.181 30.2674 154.209 30.152 154.263 30.0478C154.316 29.9436 154.394 29.8537 154.489 29.7854V29.0504C154.394 28.9821 154.316 28.8922 154.263 28.788C154.209 28.6838 154.181 28.5684 154.182 28.4514V25.7126C154.181 25.5955 154.209 25.4801 154.263 25.3759C154.316 25.2717 154.394 25.1818 154.489 25.1135V23.7851C154.372 23.722 154.273 23.6282 154.205 23.5137C154.136 23.3993 154.1 23.2684 154.101 23.1351V20.3964C154.1 20.2631 154.136 20.1322 154.205 20.0177C154.273 19.9032 154.372 19.8094 154.489 19.7463V16.1061C154.491 14.7625 155.027 13.4743 155.979 12.5241C156.932 11.574 158.224 11.0396 159.571 11.0381H176.935C178.282 11.0396 179.573 11.574 180.526 12.5242C181.478 13.4743 182.014 14.7625 182.016 16.1062V24.0408C182.107 24.0979 182.183 24.1773 182.235 24.2715C182.287 24.3656 182.315 24.4715 182.315 24.5792V29.8012C182.315 29.9089 182.287 30.0148 182.235 30.109C182.183 30.2032 182.107 30.2825 182.016 30.3397V60.9529C182.014 62.2966 181.478 63.5848 180.526 64.5349C179.573 65.4851 178.282 66.0195 176.935 66.021ZM159.571 11.7118C158.403 11.7131 157.283 12.1765 156.457 13.0003C155.631 13.8241 155.166 14.9411 155.165 16.1062V20.3193L154.84 20.3318C154.823 20.3324 154.807 20.3395 154.795 20.3515C154.783 20.3635 154.777 20.3796 154.776 20.3965V23.1351C154.777 23.1519 154.783 23.168 154.795 23.18C154.807 23.192 154.823 23.1991 154.84 23.1997L155.165 23.2121V25.5865L154.908 25.6497C154.894 25.6531 154.881 25.6611 154.872 25.6725C154.863 25.6839 154.857 25.6979 154.857 25.7125V28.4514C154.857 28.4659 154.863 28.48 154.872 28.4914C154.881 28.5027 154.894 28.5108 154.908 28.5142L155.165 28.5773V30.2584L154.908 30.3216C154.894 30.325 154.881 30.333 154.872 30.3444C154.863 30.3557 154.857 30.3698 154.857 30.3844V33.1231C154.857 33.1377 154.863 33.1518 154.872 33.1632C154.881 33.1746 154.894 33.1826 154.908 33.186L155.165 33.2492V60.9529C155.166 62.118 155.631 63.235 156.457 64.0588C157.283 64.8826 158.403 65.346 159.571 65.3473H176.935C178.103 65.346 179.222 64.8826 180.048 64.0588C180.874 63.2349 181.339 62.118 181.34 60.9529V29.7629H181.639V24.6177H181.34V16.1061C181.339 14.9411 180.874 13.8241 180.048 13.0003C179.222 12.1765 178.103 11.7131 176.935 11.7118L159.571 11.7118Z" fill="#3F3D56"/>
<path d="M170.267 13.4691C170.49 13.4691 170.671 13.2887 170.671 13.0663C170.671 12.8439 170.49 12.6636 170.267 12.6636C170.044 12.6636 169.863 12.8439 169.863 13.0663C169.863 13.2887 170.044 13.4691 170.267 13.4691Z" fill="#3F3D56"/>
<path d="M82.4293 91.0827H37.2476C36.6059 91.0811 35.991 90.8261 35.5373 90.3736C35.0836 89.9211 34.8279 89.3079 34.8262 88.6679V66.7096C34.8278 66.0696 35.0834 65.4563 35.5371 65.0037C35.9908 64.5512 36.6056 64.2962 37.2472 64.2944H82.4289C83.0706 64.2961 83.6854 64.551 84.1392 65.0035C84.5929 65.456 84.8486 66.0693 84.8503 66.7092V88.6676C84.8487 89.3076 84.5931 89.9209 84.1394 90.3734C83.6857 90.826 83.0709 91.081 82.4293 91.0827Z" fill="white"/>
<path d="M82.4293 91.0827H37.2476C36.6059 91.0811 35.991 90.8261 35.5373 90.3736C35.0836 89.9211 34.8279 89.3079 34.8262 88.6679V66.7096C34.8278 66.0696 35.0834 65.4563 35.5371 65.0037C35.9908 64.5512 36.6056 64.2962 37.2472 64.2944H82.4289C83.0706 64.2961 83.6854 64.551 84.1392 65.0035C84.5929 65.456 84.8486 66.0693 84.8503 66.7092V88.6676C84.8487 89.3076 84.5931 89.9209 84.1394 90.3734C83.6857 90.826 83.0709 91.081 82.4293 91.0827ZM37.2476 64.9681C36.7849 64.9695 36.3415 65.1535 36.0144 65.4798C35.6872 65.8062 35.5029 66.2484 35.5016 66.7099V88.6676C35.5029 89.1291 35.6874 89.5713 36.0146 89.8976C36.3418 90.2239 36.7852 90.4078 37.2479 90.409H82.4286C82.8914 90.4078 83.3348 90.2238 83.662 89.8975C83.9892 89.5711 84.1736 89.1288 84.1749 88.6673V66.7096C84.1735 66.2481 83.9891 65.8059 83.6619 65.4796C83.3347 65.1533 82.8913 64.9694 82.4286 64.9681L37.2476 64.9681Z" fill="#3F3D56"/>
<path d="M62.2599 87.8375C53.349 87.8375 44.0575 87.7526 40.5907 87.6975C40.1346 87.6882 39.7002 87.5013 39.3803 87.1769C39.0605 86.8524 38.8804 86.4161 38.8787 85.9611V67.7845C38.8788 67.6216 38.9437 67.4654 39.0591 67.35C39.1745 67.2346 39.3309 67.1695 39.4943 67.1689H80.1806C80.3439 67.1691 80.5005 67.2338 80.6162 67.3489C80.7318 67.4639 80.7971 67.62 80.7977 67.7829V80.1153C80.7901 82.1284 79.9917 84.0584 78.5739 85.4911C77.1561 86.9239 75.2317 87.7453 73.2137 87.7792C69.9827 87.8212 66.1567 87.8375 62.2599 87.8375Z" fill="#22A781"/>
<path d="M77.7656 78.9825H41.0023C40.6945 78.9817 40.3944 78.8863 40.1428 78.7094C39.8912 78.5325 39.7003 78.2826 39.596 77.9937L35.435 66.3503C35.3548 66.1258 35.3298 65.8853 35.3621 65.6491C35.3944 65.4129 35.4831 65.1879 35.6206 64.9929C35.7582 64.798 35.9407 64.6389 36.1527 64.5288C36.3647 64.4188 36.6001 64.3612 36.8391 64.3607L82.7925 64.2969C83.011 64.2966 83.2268 64.3442 83.4248 64.4362C83.6228 64.5282 83.7982 64.6624 83.9386 64.8293C84.079 64.9963 84.1809 65.1919 84.2373 65.4024C84.2936 65.6129 84.303 65.8332 84.2648 66.0477L84.3002 66.0627L84.1683 66.3697L84.167 66.3728L79.1367 78.0799C79.0221 78.3479 78.831 78.5764 78.5872 78.7369C78.3434 78.8974 78.0577 78.9828 77.7656 78.9825ZM82.7947 64.9706L36.8404 65.0344C36.7095 65.0346 36.5805 65.0662 36.4644 65.1264C36.3482 65.1867 36.2483 65.2738 36.1729 65.3806C36.0975 65.4874 36.0489 65.6107 36.0312 65.74C36.0135 65.8694 36.0272 66.0011 36.0711 66.1242L40.232 77.7671C40.2892 77.9254 40.3939 78.0623 40.5318 78.1592C40.6697 78.2561 40.8341 78.3084 41.0028 78.3088H77.7656C77.9254 78.309 78.0818 78.2622 78.2152 78.1743C78.3486 78.0865 78.4532 77.9615 78.5159 77.8148L83.5463 66.1074C83.5996 65.9833 83.6212 65.848 83.6092 65.7136C83.5971 65.5792 83.5518 65.4498 83.4773 65.3371C83.4029 65.2245 83.3015 65.132 83.1823 65.068C83.0632 65.004 82.93 64.9705 82.7947 64.9706Z" fill="#3F3D56"/>
<path d="M59.7695 81.5169C61.3594 81.5169 62.6482 80.2314 62.6482 78.6457C62.6482 77.0599 61.3594 75.7744 59.7695 75.7744C58.1797 75.7744 56.8909 77.0599 56.8909 78.6457C56.8909 80.2314 58.1797 81.5169 59.7695 81.5169Z" fill="white"/>
<path d="M168.513 56.5906C170.103 56.5906 171.392 55.3051 171.392 53.7194C171.392 52.1336 170.103 50.8481 168.513 50.8481C166.924 50.8481 165.635 52.1336 165.635 53.7194C165.635 55.3051 166.924 56.5906 168.513 56.5906Z" fill="white"/>
<path d="M277.391 95.3666L269.701 87.7944C269.327 87.4229 268.883 87.1287 268.394 86.9287C267.906 86.7287 267.382 86.6268 266.854 86.6289H266.827C266.295 86.6305 265.769 86.7372 265.278 86.9431C264.788 87.1489 264.343 87.4497 263.97 87.8281C262.251 89.5637 261.273 91.8965 261.242 94.3363C261.211 96.776 262.13 99.1327 263.805 100.911C263.886 100.999 263.97 101.083 264.055 101.167C264.522 101.631 265.039 102.043 265.595 102.396C267.115 103.376 268.887 103.895 270.697 103.889H270.755C271.997 103.884 273.226 103.635 274.371 103.154C275.516 102.673 276.554 101.97 277.425 101.086C278.179 100.323 278.599 99.2916 278.593 98.2194C278.587 97.1472 278.154 96.1213 277.391 95.3666ZM276.945 100.611C275.517 102.046 273.638 102.946 271.622 103.159C269.607 103.373 267.58 102.887 265.882 101.783C265.396 101.463 264.942 101.096 264.527 100.689C262.87 99.0565 261.931 96.8346 261.917 94.5119C261.902 92.1892 262.813 89.9558 264.45 88.303C264.761 87.9869 265.132 87.7356 265.541 87.5639C265.95 87.3921 266.39 87.3033 266.834 87.3026H266.854C267.294 87.3011 267.73 87.386 268.136 87.5524C268.543 87.7189 268.913 87.9636 269.225 88.2727L276.915 95.8483C277.551 96.4762 277.912 97.3305 277.918 98.2235C277.923 99.1165 277.574 99.9752 276.945 100.611Z" fill="#3F3D56"/>
<path d="M252.16 70.5145L244.47 62.9389C243.714 62.1899 242.69 61.7708 241.623 61.7735H241.6C241.067 61.7756 240.54 61.8829 240.049 62.0893C239.558 62.2957 239.113 62.5971 238.739 62.976C237.318 64.4158 236.396 66.272 236.109 68.2723C235.823 70.2727 236.186 72.3121 237.145 74.0917L237.149 74.0951C237.545 74.823 238.037 75.4948 238.611 76.0926C238.675 76.1667 238.75 76.2408 238.824 76.3149C240.59 78.0632 242.979 79.0419 245.467 79.0366H245.527C246.77 79.0314 247.999 78.7808 249.144 78.2992C250.289 77.8176 251.326 77.1145 252.197 76.2307C252.571 75.8529 252.867 75.4054 253.067 74.9137C253.268 74.422 253.369 73.8957 253.366 73.3649C253.362 72.8341 253.254 72.3091 253.047 71.8201C252.84 71.331 252.539 70.8874 252.16 70.5145ZM251.714 75.7591C250.906 76.5793 249.943 77.2317 248.88 77.6786C247.818 78.1255 246.677 78.3581 245.524 78.3629H245.467C243.735 78.3622 242.042 77.8509 240.601 76.8931C239.16 75.9354 238.035 74.574 237.368 72.9802C236.7 71.3864 236.52 69.6314 236.85 67.9358C237.18 66.2403 238.006 64.6799 239.222 63.4509C239.852 62.816 240.708 62.4563 241.604 62.4506C242.499 62.4449 243.36 62.7938 243.998 63.4206L251.687 70.9928C252.324 71.6219 252.684 72.4769 252.689 73.3704C252.694 74.2639 252.343 75.1229 251.714 75.7591Z" fill="#3F3D56"/>
<path d="M277.882 97.7471L269.405 89.3956C268.849 88.8492 268.098 88.545 267.318 88.5499C266.537 88.5547 265.791 88.8681 265.241 89.4214C264.555 90.1135 264.011 90.9339 263.642 91.8356C263.274 92.7373 263.087 93.7027 263.092 94.6765C263.098 95.6503 263.296 96.6135 263.675 97.511C264.054 98.4085 264.606 99.2227 265.301 99.9071C265.996 100.591 266.819 101.132 267.723 101.499C268.628 101.866 269.596 102.052 270.572 102.045C271.548 102.038 272.514 101.84 273.413 101.461C274.313 101.082 275.128 100.53 275.814 99.8362L277.882 97.7471Z" fill="#22A781"/>
<path d="M252.653 72.8936L244.176 64.5421C243.62 63.9957 242.869 63.6915 242.089 63.6963C241.308 63.7012 240.562 64.0146 240.012 64.5679C239.326 65.26 238.782 66.0803 238.413 66.9821C238.045 67.8838 237.858 68.8491 237.863 69.823C237.869 70.7968 238.067 71.76 238.446 72.6575C238.825 73.555 239.377 74.3692 240.072 75.0536C240.767 75.7379 241.59 76.2789 242.494 76.6458C243.399 77.0126 244.367 77.1981 245.343 77.1915C246.319 77.1849 247.285 76.9864 248.184 76.6074C249.084 76.2284 249.899 75.6763 250.585 74.9826L252.653 72.8936Z" fill="#22A781"/>
<path d="M268.566 102.949L268.364 103.481C267.411 103.121 266.488 102.759 265.594 102.396C249.762 95.9526 242.204 88.4107 237.149 74.0949L237.145 74.0915C236.906 73.4179 236.673 72.7285 236.446 72.0234L236.98 71.8516C237.158 72.5297 237.419 73.1835 237.757 73.7985C238.034 74.5833 238.318 75.348 238.611 76.0924C243.363 88.1749 250.37 95.0801 263.804 100.911C264.48 101.204 265.172 101.495 265.881 101.783C266.705 102.318 267.612 102.712 268.566 102.949Z" fill="#3F3D56"/>
<path d="M244.329 78.4234L243.855 78.9028L261.395 96.1821L261.87 95.7026L244.329 78.4234Z" fill="#3F3D56"/>
<path d="M95.8313 64.1056L95.8403 53.0361L89.3165 53.6176L91.6189 60.5991L83.2614 73.2354C82.7388 73.3524 82.2616 73.6185 81.888 74.0013C81.5144 74.3841 81.2606 74.8671 81.1574 75.3913C81.0542 75.9155 81.1062 76.4584 81.307 76.9536C81.5078 77.4489 81.8488 77.8752 82.2883 78.1805C82.7278 78.4859 83.2468 78.6571 83.7822 78.6732C84.3176 78.6894 84.8461 78.5499 85.3033 78.2716C85.7605 77.9934 86.1267 77.5884 86.3572 77.1062C86.5877 76.624 86.6725 76.0853 86.6014 75.5558L95.8313 64.1056Z" fill="#FFB6B6"/>
</g>
<defs>
<clipPath id="clip0_938_1838">
<rect width="302" height="151" fill="white"/>
</clipPath>
</defs>
</svg>
