<svg width="8" height="8" viewBox="0 0 8 8" fill="none" xmlns="http://www.w3.org/2000/svg">
<path d="M3.5 4.5H1C0.858333 4.5 0.739583 4.45208 0.64375 4.35625C0.547917 4.26042 0.5 4.14167 0.5 4C0.5 3.85833 0.547917 3.73958 0.64375 3.64375C0.739583 3.54792 0.858333 3.5 1 3.5H3.5V1C3.5 0.858333 3.54792 0.739583 3.64375 0.64375C3.73958 0.547917 3.85833 0.5 4 0.5C4.14167 0.5 4.26042 0.547917 4.35625 0.64375C4.45208 0.739583 4.5 0.858333 4.5 1V3.5H7C7.14167 3.5 7.26042 3.54792 7.35625 3.64375C7.45208 3.73958 7.5 3.85833 7.5 4C7.5 4.14167 7.45208 4.26042 7.35625 4.35625C7.26042 4.45208 7.14167 4.5 7 4.5H4.5V7C4.5 7.14167 4.45208 7.26042 4.35625 7.35625C4.26042 7.45208 4.14167 7.5 4 7.5C3.85833 7.5 3.73958 7.45208 3.64375 7.35625C3.54792 7.26042 3.5 7.14167 3.5 7V4.5Z" fill="#9E9E9E"/>
</svg>
