<svg width="100%" height="854" viewBox="0 0 600 854" fill="none" xmlns="http://www.w3.org/2000/svg">
    <path
        d="M-564.931 18.9362C-542.338 19.4024 -505.658 24.9029 -456.485 21.1737C-407.313 17.4446 -382.062 0.103931 -328.902 1.03622C-275.742 1.96851 -254.478 24.7164 -201.319 25.6487C-148.159 26.581 -126.895 4.57893 -73.7354 5.51122C-20.5757 6.44351 0.688203 29.1914 53.8479 30.1237C107.008 31.056 128.272 9.05393 181.431 9.98622C234.591 10.9185 255.855 33.6664 309.015 34.5987C362.174 35.531 383.438 13.5289 436.598 14.4612C489.758 15.3935 511.022 38.1414 564.181 39.0737C617.341 40.006 638.605 18.0039 691.765 18.9362C744.924 19.8685 766.188 42.6164 819.348 43.5487C872.508 44.481 920.351 27.6065 946.931 23.4112"
        stroke="url(#paint0_linear_285_3451)" stroke-linecap="round" />
    <path
        d="M-564.931 61.5222C-542.338 61.9883 -505.658 67.4888 -456.485 63.7597C-407.313 60.0305 -382.062 42.6899 -328.902 43.6222C-275.742 44.5545 -254.478 67.3024 -201.319 68.2347C-148.159 69.167 -126.895 47.1649 -73.7354 48.0972C-20.5757 49.0295 0.688203 71.7774 53.8479 72.7097C107.008 73.642 128.272 51.6399 181.431 52.5722C234.591 53.5045 255.855 76.2524 309.015 77.1847C362.174 78.117 383.438 56.1149 436.598 57.0472C489.758 57.9795 511.022 80.7274 564.181 81.6597C617.341 82.592 638.605 60.5899 691.765 61.5222C744.924 62.4545 766.188 85.2024 819.348 86.1347C872.508 87.067 920.351 70.1925 946.931 65.9972"
        stroke="url(#paint1_linear_285_3451)" stroke-linecap="round" />
    <path
        d="M-564.931 104.108C-542.338 104.574 -505.658 110.075 -456.485 106.346C-407.313 102.616 -382.062 85.2758 -328.902 86.2081C-275.742 87.1404 -254.478 109.888 -201.319 110.821C-148.159 111.753 -126.895 89.7508 -73.7354 90.6831C-20.5757 91.6154 0.688203 114.363 53.8479 115.296C107.008 116.228 128.272 94.2258 181.431 95.1581C234.591 96.0904 255.855 118.838 309.015 119.771C362.174 120.703 383.438 98.7008 436.598 99.6331C489.758 100.565 511.022 123.313 564.181 124.246C617.341 125.178 638.605 103.176 691.765 104.108C744.924 105.04 766.188 127.788 819.348 128.721C872.508 129.653 920.351 112.778 946.931 108.583"
        stroke="url(#paint2_linear_285_3451)" stroke-linecap="round" />
    <path
        d="M-564.931 146.694C-542.338 147.16 -505.658 152.661 -456.485 148.932C-407.313 145.202 -382.062 127.862 -328.902 128.794C-275.742 129.726 -254.478 152.474 -201.319 153.407C-148.159 154.339 -126.895 132.337 -73.7354 133.269C-20.5757 134.201 0.688203 156.949 53.8479 157.882C107.008 158.814 128.272 136.812 181.431 137.744C234.591 138.676 255.855 161.424 309.015 162.357C362.174 163.289 383.438 141.287 436.598 142.219C489.758 143.151 511.022 165.899 564.181 166.832C617.341 167.764 638.605 145.762 691.765 146.694C744.924 147.626 766.188 170.374 819.348 171.307C872.508 172.239 920.351 155.364 946.931 151.169"
        stroke="url(#paint3_linear_285_3451)" stroke-linecap="round" />
    <path
        d="M-564.931 189.28C-542.338 189.746 -505.658 195.247 -456.485 191.517C-407.313 187.788 -382.062 170.448 -328.902 171.38C-275.742 172.312 -254.478 195.06 -201.319 195.992C-148.159 196.925 -126.895 174.923 -73.7354 175.855C-20.5757 176.787 0.688203 199.535 53.8479 200.467C107.008 201.4 128.272 179.398 181.431 180.33C234.591 181.262 255.855 204.01 309.015 204.942C362.174 205.875 383.438 183.873 436.598 184.805C489.758 185.737 511.022 208.485 564.181 209.417C617.341 210.35 638.605 188.348 691.765 189.28C744.924 190.212 766.188 212.96 819.348 213.892C872.508 214.825 920.351 197.95 946.931 193.755"
        stroke="url(#paint4_linear_285_3451)" stroke-linecap="round" />
    <path
        d="M-564.931 231.866C-542.338 232.332 -505.658 237.833 -456.485 234.103C-407.313 230.374 -382.062 213.034 -328.902 213.966C-275.742 214.898 -254.478 237.646 -201.319 238.578C-148.159 239.511 -126.895 217.509 -73.7354 218.441C-20.5757 219.373 0.688175 242.121 53.8479 243.053C107.008 243.986 128.272 221.984 181.431 222.916C234.591 223.848 255.855 246.596 309.015 247.528C362.174 248.461 383.438 226.459 436.598 227.391C489.758 228.323 511.022 251.071 564.181 252.003C617.341 252.936 638.605 230.934 691.765 231.866C744.924 232.798 766.188 255.546 819.348 256.478C872.508 257.411 920.351 240.536 946.931 236.341"
        stroke="url(#paint5_linear_285_3451)" stroke-linecap="round" />
    <path
        d="M-564.931 274.451C-542.338 274.918 -505.658 280.418 -456.485 276.689C-407.313 272.96 -382.062 255.619 -328.902 256.551C-275.742 257.484 -254.478 280.232 -201.319 281.164C-148.159 282.096 -126.895 260.094 -73.7354 261.026C-20.5757 261.959 0.688203 284.707 53.8479 285.639C107.008 286.571 128.272 264.569 181.431 265.501C234.591 266.434 255.855 289.182 309.015 290.114C362.174 291.046 383.438 269.044 436.598 269.976C489.758 270.909 511.022 293.657 564.181 294.589C617.341 295.521 638.605 273.519 691.765 274.451C744.924 275.384 766.188 298.132 819.348 299.064C872.508 299.996 920.351 283.122 946.931 278.926"
        stroke="url(#paint6_linear_285_3451)" stroke-linecap="round" />
    <path
        d="M-564.931 317.037C-542.338 317.503 -505.658 323.004 -456.485 319.275C-407.313 315.546 -382.062 298.205 -328.902 299.137C-275.742 300.07 -254.478 322.818 -201.319 323.75C-148.159 324.682 -126.895 302.68 -73.7354 303.612C-20.5757 304.545 0.688203 327.293 53.8479 328.225C107.008 329.157 128.272 307.155 181.431 308.087C234.591 309.02 255.855 331.768 309.015 332.7C362.174 333.632 383.438 311.63 436.598 312.562C489.758 313.495 511.022 336.243 564.181 337.175C617.341 338.107 638.605 316.105 691.765 317.037C744.924 317.97 766.188 340.718 819.348 341.65C872.508 342.582 920.351 325.708 946.931 321.512"
        stroke="url(#paint7_linear_285_3451)" stroke-linecap="round" />
    <path
        d="M-564.931 359.623C-542.338 360.089 -505.658 365.59 -456.485 361.861C-407.313 358.132 -382.062 340.791 -328.902 341.723C-275.742 342.656 -254.478 365.403 -201.319 366.336C-148.159 367.268 -126.895 345.266 -73.7354 346.198C-20.5757 347.131 0.688203 369.878 53.8479 370.811C107.008 371.743 128.272 349.741 181.431 350.673C234.591 351.606 255.855 374.353 309.015 375.286C362.174 376.218 383.438 354.216 436.598 355.148C489.758 356.081 511.022 378.828 564.181 379.761C617.341 380.693 638.605 358.691 691.765 359.623C744.924 360.556 766.188 383.303 819.348 384.236C872.508 385.168 920.351 368.294 946.931 364.098"
        stroke="url(#paint8_linear_285_3451)" stroke-linecap="round" />
    <path
        d="M-564.931 402.209C-542.338 402.675 -505.658 408.176 -456.485 404.447C-407.313 400.718 -382.062 383.377 -328.902 384.309C-275.742 385.241 -254.478 407.989 -201.319 408.922C-148.159 409.854 -126.895 387.852 -73.7354 388.784C-20.5757 389.716 0.688203 412.464 53.8479 413.397C107.008 414.329 128.272 392.327 181.431 393.259C234.591 394.191 255.855 416.939 309.015 417.872C362.174 418.804 383.438 396.802 436.598 397.734C489.758 398.666 511.022 421.414 564.181 422.347C617.341 423.279 638.605 401.277 691.765 402.209C744.924 403.141 766.188 425.889 819.348 426.822C872.508 427.754 920.351 410.879 946.931 406.684"
        stroke="url(#paint9_linear_285_3451)" stroke-linecap="round" />
    <path
        d="M-564.931 444.795C-542.338 445.261 -505.658 450.762 -456.485 447.033C-407.313 443.303 -382.062 425.963 -328.902 426.895C-275.742 427.827 -254.478 450.575 -201.319 451.508C-148.159 452.44 -126.895 430.438 -73.7354 431.37C-20.5757 432.302 0.688203 455.05 53.8479 455.983C107.008 456.915 128.272 434.913 181.431 435.845C234.591 436.777 255.855 459.525 309.015 460.458C362.174 461.39 383.438 439.388 436.598 440.32C489.758 441.252 511.022 464 564.181 464.933C617.341 465.865 638.605 443.863 691.765 444.795C744.924 445.727 766.188 468.475 819.348 469.408C872.508 470.34 920.351 453.465 946.931 449.27"
        stroke="url(#paint10_linear_285_3451)" stroke-linecap="round" />
    <path
        d="M-564.931 487.381C-542.338 487.847 -505.658 493.348 -456.485 489.619C-407.313 485.889 -382.062 468.549 -328.902 469.481C-275.742 470.413 -254.478 493.161 -201.319 494.094C-148.159 495.026 -126.895 473.024 -73.7354 473.956C-20.5757 474.888 0.688203 497.636 53.8479 498.569C107.008 499.501 128.272 477.499 181.431 478.431C234.591 479.363 255.855 502.111 309.015 503.044C362.174 503.976 383.438 481.974 436.598 482.906C489.758 483.838 511.022 506.586 564.181 507.519C617.341 508.451 638.605 486.449 691.765 487.381C744.924 488.313 766.188 511.061 819.348 511.994C872.508 512.926 920.351 496.051 946.931 491.856"
        stroke="url(#paint11_linear_285_3451)" stroke-linecap="round" />
    <path
        d="M-564.931 529.967C-542.338 530.433 -505.658 535.934 -456.485 532.204C-407.313 528.475 -382.062 511.135 -328.902 512.067C-275.742 512.999 -254.478 535.747 -201.319 536.679C-148.159 537.612 -126.895 515.61 -73.7354 516.542C-20.5757 517.474 0.688203 540.222 53.8479 541.154C107.008 542.087 128.272 520.085 181.431 521.017C234.591 521.949 255.855 544.697 309.015 545.629C362.174 546.562 383.438 524.56 436.598 525.492C489.758 526.424 511.022 549.172 564.181 550.104C617.341 551.037 638.605 529.035 691.765 529.967C744.924 530.899 766.188 553.647 819.348 554.579C872.508 555.512 920.351 538.637 946.931 534.442"
        stroke="url(#paint12_linear_285_3451)" stroke-linecap="round" />
    <path
        d="M-564.931 572.553C-542.338 573.019 -505.658 578.52 -456.485 574.79C-407.313 571.061 -382.062 553.721 -328.902 554.653C-275.742 555.585 -254.478 578.333 -201.319 579.265C-148.159 580.198 -126.895 558.196 -73.7354 559.128C-20.5757 560.06 0.688203 582.808 53.8479 583.74C107.008 584.673 128.272 562.671 181.431 563.603C234.591 564.535 255.855 587.283 309.015 588.215C362.174 589.148 383.438 567.146 436.598 568.078C489.758 569.01 511.022 591.758 564.181 592.69C617.341 593.623 638.605 571.621 691.765 572.553C744.924 573.485 766.188 596.233 819.348 597.165C872.508 598.098 920.351 581.223 946.931 577.028"
        stroke="url(#paint13_linear_285_3451)" stroke-linecap="round" />
    <path
        d="M-564.931 615.139C-542.338 615.605 -505.658 621.106 -456.485 617.376C-407.313 613.647 -382.062 596.307 -328.902 597.239C-275.742 598.171 -254.478 620.919 -201.319 621.851C-148.159 622.784 -126.895 600.782 -73.7354 601.714C-20.5757 602.646 0.688203 625.394 53.8479 626.326C107.008 627.259 128.272 605.257 181.431 606.189C234.591 607.121 255.855 629.869 309.015 630.801C362.174 631.734 383.438 609.732 436.598 610.664C489.758 611.596 511.022 634.344 564.181 635.276C617.341 636.209 638.605 614.207 691.765 615.139C744.924 616.071 766.188 638.819 819.348 639.751C872.508 640.684 920.351 623.809 946.931 619.614"
        stroke="url(#paint14_linear_285_3451)" stroke-linecap="round" />
    <path
        d="M-564.931 657.725C-542.338 658.191 -505.658 663.691 -456.485 659.962C-407.313 656.233 -382.062 638.893 -328.902 639.825C-275.742 640.757 -254.478 663.505 -201.319 664.437C-148.159 665.37 -126.895 643.368 -73.7354 644.3C-20.5757 645.232 0.688203 667.98 53.8479 668.912C107.008 669.845 128.272 647.843 181.431 648.775C234.591 649.707 255.855 672.455 309.015 673.387C362.174 674.32 383.438 652.318 436.598 653.25C489.758 654.182 511.022 676.93 564.181 677.862C617.341 678.795 638.605 656.793 691.765 657.725C744.924 658.657 766.188 681.405 819.348 682.337C872.508 683.27 920.351 666.395 946.931 662.2"
        stroke="url(#paint15_linear_285_3451)" stroke-linecap="round" />
    <path
        d="M-564.931 700.311C-542.338 700.777 -505.658 706.277 -456.485 702.548C-407.313 698.819 -382.062 681.478 -328.902 682.411C-275.742 683.343 -254.478 706.091 -201.319 707.023C-148.159 707.956 -126.895 685.953 -73.7354 686.886C-20.5757 687.818 0.688203 710.566 53.8479 711.498C107.008 712.431 128.272 690.428 181.431 691.361C234.591 692.293 255.855 715.041 309.015 715.973C362.174 716.906 383.438 694.903 436.598 695.836C489.758 696.768 511.022 719.516 564.181 720.448C617.341 721.381 638.605 699.378 691.765 700.311C744.924 701.243 766.188 723.991 819.348 724.923C872.508 725.856 920.351 708.981 946.931 704.786"
        stroke="url(#paint16_linear_285_3451)" stroke-linecap="round" />
    <path
        d="M-564.931 742.896C-542.338 743.362 -505.658 748.863 -456.485 745.134C-407.313 741.405 -382.062 724.064 -328.902 724.996C-275.742 725.928 -254.478 748.676 -201.319 749.609C-148.159 750.541 -126.895 728.539 -73.7354 729.471C-20.5757 730.403 0.688203 753.151 53.8479 754.084C107.008 755.016 128.272 733.014 181.431 733.946C234.591 734.878 255.855 757.626 309.015 758.559C362.174 759.491 383.438 737.489 436.598 738.421C489.758 739.353 511.022 762.101 564.181 763.034C617.341 763.966 638.605 741.964 691.765 742.896C744.924 743.828 766.188 766.576 819.348 767.509C872.508 768.441 920.351 751.566 946.931 747.371"
        stroke="url(#paint17_linear_285_3451)" stroke-linecap="round" />


    <defs>
        <linearGradient id="paint0_linear_285_3451" x1="-595.613" y1="-44194.1" x2="6689.19"
            y2="-44194.1" gradientUnits="userSpaceOnUse">
            <stop stop-color="#81726A" />
            <stop offset="1" stop-color="#22A781" />
        </linearGradient>
        <linearGradient id="paint1_linear_285_3451" x1="-595.613" y1="-44151.5" x2="6689.19"
            y2="-44151.5" gradientUnits="userSpaceOnUse">
            <stop stop-color="#81726A" />
            <stop offset="1" stop-color="#22A781" />
        </linearGradient>
        <linearGradient id="paint2_linear_285_3451" x1="-595.613" y1="-44108.9" x2="6689.19"
            y2="-44108.9" gradientUnits="userSpaceOnUse">
            <stop stop-color="#81726A" />
            <stop offset="1" stop-color="#22A781" />
        </linearGradient>
        <linearGradient id="paint3_linear_285_3451" x1="-595.613" y1="-44066.3" x2="6689.19"
            y2="-44066.3" gradientUnits="userSpaceOnUse">
            <stop stop-color="#81726A" />
            <stop offset="1" stop-color="#22A781" />
        </linearGradient>
        <linearGradient id="paint4_linear_285_3451" x1="-595.613" y1="-44023.7" x2="6689.19"
            y2="-44023.7" gradientUnits="userSpaceOnUse">
            <stop stop-color="#81726A" />
            <stop offset="1" stop-color="#22A781" />
        </linearGradient>
        <linearGradient id="paint5_linear_285_3451" x1="-595.613" y1="-43981.1" x2="6689.19"
            y2="-43981.1" gradientUnits="userSpaceOnUse">
            <stop stop-color="#81726A" />
            <stop offset="1" stop-color="#22A781" />
        </linearGradient>
        <linearGradient id="paint6_linear_285_3451" x1="-595.613" y1="-43938.5" x2="6689.19"
            y2="-43938.5" gradientUnits="userSpaceOnUse">
            <stop stop-color="#81726A" />
            <stop offset="1" stop-color="#22A781" />
        </linearGradient>
        <linearGradient id="paint7_linear_285_3451" x1="-595.613" y1="-43896" x2="6689.19"
            y2="-43896" gradientUnits="userSpaceOnUse">
            <stop stop-color="#81726A" />
            <stop offset="1" stop-color="#22A781" />
        </linearGradient>
        <linearGradient id="paint8_linear_285_3451" x1="-595.613" y1="-43853.4" x2="6689.19"
            y2="-43853.4" gradientUnits="userSpaceOnUse">
            <stop stop-color="#81726A" />
            <stop offset="1" stop-color="#22A781" />
        </linearGradient>
        <linearGradient id="paint9_linear_285_3451" x1="-595.613" y1="-43810.8" x2="6689.19"
            y2="-43810.8" gradientUnits="userSpaceOnUse">
            <stop stop-color="#81726A" />
            <stop offset="1" stop-color="#22A781" />
        </linearGradient>
        <linearGradient id="paint10_linear_285_3451" x1="-595.613" y1="-43768.2" x2="6689.19"
            y2="-43768.2" gradientUnits="userSpaceOnUse">
            <stop stop-color="#81726A" />
            <stop offset="1" stop-color="#22A781" />
        </linearGradient>
        <linearGradient id="paint11_linear_285_3451" x1="-595.613" y1="-43725.6" x2="6689.19"
            y2="-43725.6" gradientUnits="userSpaceOnUse">
            <stop stop-color="#81726A" />
            <stop offset="1" stop-color="#22A781" />
        </linearGradient>
        <linearGradient id="paint12_linear_285_3451" x1="-595.613" y1="-43683" x2="6689.19"
            y2="-43683" gradientUnits="userSpaceOnUse">
            <stop stop-color="#81726A" />
            <stop offset="1" stop-color="#22A781" />
        </linearGradient>
        <linearGradient id="paint13_linear_285_3451" x1="-595.613" y1="-43640.4" x2="6689.19"
            y2="-43640.4" gradientUnits="userSpaceOnUse">
            <stop stop-color="#81726A" />
            <stop offset="1" stop-color="#22A781" />
        </linearGradient>
        <linearGradient id="paint14_linear_285_3451" x1="-595.613" y1="-43597.9" x2="6689.19"
            y2="-43597.9" gradientUnits="userSpaceOnUse">
            <stop stop-color="#81726A" />
            <stop offset="1" stop-color="#22A781" />
        </linearGradient>
        <linearGradient id="paint15_linear_285_3451" x1="-595.613" y1="-43555.3" x2="6689.19"
            y2="-43555.3" gradientUnits="userSpaceOnUse">
            <stop stop-color="#81726A" />
            <stop offset="1" stop-color="#22A781" />
        </linearGradient>
        <linearGradient id="paint16_linear_285_3451" x1="-595.613" y1="-43512.7" x2="6689.19"
            y2="-43512.7" gradientUnits="userSpaceOnUse">
            <stop stop-color="#81726A" />
            <stop offset="1" stop-color="#22A781" />
        </linearGradient>
        <linearGradient id="paint17_linear_285_3451" x1="-595.613" y1="-43470.1" x2="6689.19"
            y2="-43470.1" gradientUnits="userSpaceOnUse">
            <stop stop-color="#81726A" />
            <stop offset="1" stop-color="#22A781" />
        </linearGradient>
        <linearGradient id="paint18_linear_285_3451" x1="-595.613" y1="-43427.5" x2="6689.19"
            y2="-43427.5" gradientUnits="userSpaceOnUse">
            <stop stop-color="#81726A" />
            <stop offset="1" stop-color="#22A781" />
        </linearGradient>
        <linearGradient id="paint19_linear_285_3451" x1="-595.613" y1="-43384.9" x2="6689.19"
            y2="-43384.9" gradientUnits="userSpaceOnUse">
            <stop stop-color="#81726A" />
            <stop offset="1" stop-color="#22A781" />
        </linearGradient>
    </defs>
</svg>