<svg width="100%" height="100%" preserveAspectRatio="none" viewBox="0 0 1440 258" fill="none"
    xmlns="http://www.w3.org/2000/svg">
    <path
        d="M-36 18.9362C-13.4071 19.4024 23.2731 24.9029 72.4458 21.1737C121.619 17.4446 146.869 0.103931 200.029 1.03622C253.189 1.96851 274.453 24.7164 327.613 25.6487C380.772 26.581 402.036 4.57893 455.196 5.51122C508.356 6.44351 529.619 29.1914 582.779 30.1237C635.939 31.056 657.203 9.05393 710.363 9.98622C763.522 10.9185 784.786 33.6664 837.946 34.5987C891.106 35.531 912.369 13.5289 965.529 14.4612C1018.69 15.3935 1039.95 38.1414 1093.11 39.0737C1146.27 40.006 1167.54 18.0039 1220.7 18.9362C1273.86 19.8685 1295.12 42.6164 1348.28 43.5487C1401.44 44.481 1449.28 27.6065 1475.86 23.4112"
        stroke="url(#paint0_linear_23_285)" stroke-linecap="round" />
    <path
        d="M-36 61.5222C-13.4071 61.9883 23.2731 67.4888 72.4458 63.7597C121.619 60.0305 146.869 42.6899 200.029 43.6222C253.189 44.5545 274.453 67.3024 327.613 68.2347C380.772 69.1669 402.036 47.1649 455.196 48.0972C508.356 49.0295 529.619 71.7774 582.779 72.7097C635.939 73.6419 657.203 51.6399 710.363 52.5722C763.522 53.5044 784.786 76.2524 837.946 77.1847C891.106 78.1169 912.369 56.1149 965.529 57.0472C1018.69 57.9794 1039.95 80.7274 1093.11 81.6597C1146.27 82.5919 1167.54 60.5899 1220.7 61.5222C1273.86 62.4544 1295.12 85.2024 1348.28 86.1347C1401.44 87.0669 1449.28 70.1925 1475.86 65.9972"
        stroke="url(#paint1_linear_23_285)" stroke-linecap="round" />
    <path
        d="M-36 104.108C-13.4071 104.574 23.2731 110.075 72.4458 106.346C121.619 102.616 146.869 85.2758 200.029 86.2081C253.189 87.1404 274.453 109.888 327.613 110.821C380.772 111.753 402.036 89.7508 455.196 90.6831C508.356 91.6154 529.619 114.363 582.779 115.296C635.939 116.228 657.203 94.2258 710.363 95.1581C763.522 96.0904 784.786 118.838 837.946 119.771C891.106 120.703 912.369 98.7008 965.529 99.6331C1018.69 100.565 1039.95 123.313 1093.11 124.246C1146.27 125.178 1167.54 103.176 1220.7 104.108C1273.86 105.04 1295.12 127.788 1348.28 128.721C1401.44 129.653 1449.28 112.778 1475.86 108.583"
        stroke="url(#paint2_linear_23_285)" stroke-linecap="round" />
    <path
        d="M-36 146.694C-13.4071 147.16 23.2731 152.661 72.4458 148.932C121.619 145.202 146.869 127.862 200.029 128.794C253.189 129.726 274.453 152.474 327.613 153.407C380.772 154.339 402.036 132.337 455.196 133.269C508.356 134.201 529.619 156.949 582.779 157.882C635.939 158.814 657.203 136.812 710.363 137.744C763.522 138.676 784.786 161.424 837.946 162.357C891.106 163.289 912.369 141.287 965.529 142.219C1018.69 143.151 1039.95 165.899 1093.11 166.832C1146.27 167.764 1167.54 145.762 1220.7 146.694C1273.86 147.626 1295.12 170.374 1348.28 171.307C1401.44 172.239 1449.28 155.364 1475.86 151.169"
        stroke="url(#paint3_linear_23_285)" stroke-linecap="round" />
    <path
        d="M-36 189.28C-13.4071 189.746 23.2731 195.247 72.4458 191.517C121.619 187.788 146.869 170.448 200.029 171.38C253.189 172.312 274.453 195.06 327.613 195.992C380.772 196.925 402.036 174.923 455.196 175.855C508.356 176.787 529.619 199.535 582.779 200.467C635.939 201.4 657.203 179.398 710.363 180.33C763.522 181.262 784.786 204.01 837.946 204.942C891.106 205.875 912.369 183.873 965.529 184.805C1018.69 185.737 1039.95 208.485 1093.11 209.417C1146.27 210.35 1167.54 188.348 1220.7 189.28C1273.86 190.212 1295.12 212.96 1348.28 213.892C1401.44 214.825 1449.28 197.95 1475.86 193.755"
        stroke="url(#paint4_linear_23_285)" stroke-linecap="round" />
    <path
        d="M-36 231.866C-13.4071 232.332 23.2731 237.833 72.4458 234.103C121.619 230.374 146.869 213.034 200.029 213.966C253.189 214.898 274.453 237.646 327.613 238.578C380.772 239.511 402.036 217.509 455.196 218.441C508.356 219.373 529.619 242.121 582.779 243.053C635.939 243.986 657.203 221.984 710.363 222.916C763.522 223.848 784.786 246.596 837.946 247.528C891.106 248.461 912.369 226.459 965.529 227.391C1018.69 228.323 1039.95 251.071 1093.11 252.003C1146.27 252.936 1167.54 230.934 1220.7 231.866C1273.86 232.798 1295.12 255.546 1348.28 256.478C1401.44 257.411 1449.28 240.536 1475.86 236.341"
        stroke="url(#paint5_linear_23_285)" stroke-linecap="round" />
    <defs>
        <linearGradient id="paint0_linear_23_285" x1="-66.682" y1="-44194.1" x2="7218.12"
            y2="-44194.1" gradientUnits="userSpaceOnUse">
            <stop stop-color="#81726A" />
            <stop offset="1" stop-color="#22A781" />
        </linearGradient>
        <linearGradient id="paint1_linear_23_285" x1="-66.682" y1="-44151.5" x2="7218.12"
            y2="-44151.5" gradientUnits="userSpaceOnUse">
            <stop stop-color="#81726A" />
            <stop offset="1" stop-color="#22A781" />
        </linearGradient>
        <linearGradient id="paint2_linear_23_285" x1="-66.682" y1="-44108.9" x2="7218.12"
            y2="-44108.9" gradientUnits="userSpaceOnUse">
            <stop stop-color="#81726A" />
            <stop offset="1" stop-color="#22A781" />
        </linearGradient>
        <linearGradient id="paint3_linear_23_285" x1="-66.682" y1="-44066.3" x2="7218.12"
            y2="-44066.3" gradientUnits="userSpaceOnUse">
            <stop stop-color="#81726A" />
            <stop offset="1" stop-color="#22A781" />
        </linearGradient>
        <linearGradient id="paint4_linear_23_285" x1="-66.682" y1="-44023.7" x2="7218.12"
            y2="-44023.7" gradientUnits="userSpaceOnUse">
            <stop stop-color="#81726A" />
            <stop offset="1" stop-color="#22A781" />
        </linearGradient>
        <linearGradient id="paint5_linear_23_285" x1="-66.682" y1="-43981.1" x2="7218.12"
            y2="-43981.1" gradientUnits="userSpaceOnUse">
            <stop stop-color="#81726A" />
            <stop offset="1" stop-color="#22A781" />
        </linearGradient>
    </defs>
</svg>