<svg width="100%" height="241" viewBox="0 0 1440 241" fill="none" preserveAspectRatio="none"
    xmlns="http://www.w3.org/2000/svg">
    <g clip-path="url(#clip0_190_1913)">
        <rect width="1440" height="241" transform="matrix(1 0 0 -1 0 241.035)" fill="white" />
        <path
            d="M0 53.0166L48 47.1259C96 41.1545 192 29.3731 288 27.8399C384 26.3874 480 35.2638 576 35.1024C672 35.0217 768 25.8225 864 16.4619C960 7.02066 1056 -2.6627 1152 0.726471C1248 4.03496 1344 20.4966 1392 28.6468L1440 36.8777V241.035H1392C1344 241.035 1248 241.035 1152 241.035C1056 241.035 960 241.035 864 241.035C768 241.035 672 241.035 576 241.035C480 241.035 384 241.035 288 241.035C192 241.035 96 241.035 48 241.035H0V53.0166Z"
            fill="#2A2222" />
        <path
            d="M0 53.0166L48 47.1259C96 41.1545 192 29.3731 288 27.8399C384 26.3874 480 35.2638 576 35.1024C672 35.0217 768 25.8225 864 16.4619C960 7.02066 1056 -2.6627 1152 0.726471C1248 4.03496 1344 20.4966 1392 28.6468L1440 36.8777V241.035H1392C1344 241.035 1248 241.035 1152 241.035C1056 241.035 960 241.035 864 241.035C768 241.035 672 241.035 576 241.035C480 241.035 384 241.035 288 241.035C192 241.035 96 241.035 48 241.035H0V53.0166Z"
            fill="black" fill-opacity="0.2" />
        <path
            d="M0 49.9094L48 44.6675C96 39.4257 192 28.942 288 19.668C384 10.3939 480 2.32956 576 6.76495C672 11.2004 768 28.1356 864 36.0387C960 44.0224 1056 42.8934 1152 39.0225C1248 35.1516 1344 28.3775 1392 25.0711L1440 21.6841V241.035H1392C1344 241.035 1248 241.035 1152 241.035C1056 241.035 960 241.035 864 241.035C768 241.035 672 241.035 576 241.035C480 241.035 384 241.035 288 241.035C192 241.035 96 241.035 48 241.035H0V49.9094Z"
            fill="#332827" />
        <path
            d="M0 49.9094L48 44.6675C96 39.4257 192 28.942 288 19.668C384 10.3939 480 2.32956 576 6.76495C672 11.2004 768 28.1356 864 36.0387C960 44.0224 1056 42.8934 1152 39.0225C1248 35.1516 1344 28.3775 1392 25.0711L1440 21.6841V241.035H1392C1344 241.035 1248 241.035 1152 241.035C1056 241.035 960 241.035 864 241.035C768 241.035 672 241.035 576 241.035C480 241.035 384 241.035 288 241.035C192 241.035 96 241.035 48 241.035H0V49.9094Z"
            fill="black" fill-opacity="0.2" />
        <path
            d="M0 19.8903L48 32.5617C96 45.1525 192 70.4953 288 74.6115C384 78.8084 480 61.8594 576 58.2274C672 54.5955 768 64.2807 864 70.4953C960 76.6293 1056 79.3734 1152 78.647C1248 78.0013 1344 73.9659 1392 71.9481L1440 69.9304V241.035H1392C1344 241.035 1248 241.035 1152 241.035C1056 241.035 960 241.035 864 241.035C768 241.035 672 241.035 576 241.035C480 241.035 384 241.035 288 241.035C192 241.035 96 241.035 48 241.035H0V19.8903Z"
            fill="#3C2E2C" />
        <path
            d="M0 19.8903L48 32.5617C96 45.1525 192 70.4953 288 74.6115C384 78.8084 480 61.8594 576 58.2274C672 54.5955 768 64.2807 864 70.4953C960 76.6293 1056 79.3734 1152 78.647C1248 78.0013 1344 73.9659 1392 71.9481L1440 69.9304V241.035H1392C1344 241.035 1248 241.035 1152 241.035C1056 241.035 960 241.035 864 241.035C768 241.035 672 241.035 576 241.035C480 241.035 384 241.035 288 241.035C192 241.035 96 241.035 48 241.035H0V19.8903Z"
            fill="black" fill-opacity="0.2" />
        <path
            d="M0 47.2766L48 58.337C96 69.3167 192 91.4374 288 99.9951C384 108.633 480 103.79 576 97.9768C672 92.2448 768 85.4632 864 76.9863C960 68.5093 1056 58.337 1152 55.915C1248 53.493 1344 58.8214 1392 61.5663L1440 64.2305V241.035H1392C1344 241.035 1248 241.035 1152 241.035C1056 241.035 960 241.035 864 241.035C768 241.035 672 241.035 576 241.035C480 241.035 384 241.035 288 241.035C192 241.035 96 241.035 48 241.035H0V47.2766Z"
            fill="#453431" />
        <path
            d="M0 47.2766L48 58.337C96 69.3167 192 91.4374 288 99.9951C384 108.633 480 103.79 576 97.9768C672 92.2448 768 85.4632 864 76.9863C960 68.5093 1056 58.337 1152 55.915C1248 53.493 1344 58.8214 1392 61.5663L1440 64.2305V241.035H1392C1344 241.035 1248 241.035 1152 241.035C1056 241.035 960 241.035 864 241.035C768 241.035 672 241.035 576 241.035C480 241.035 384 241.035 288 241.035C192 241.035 96 241.035 48 241.035H0V47.2766Z"
            fill="black" fill-opacity="0.2" />
        <path
            d="M0 98.2996L48 100.477C96 102.574 192 106.928 288 111.767C384 116.605 480 121.928 576 124.75C672 127.573 768 127.895 864 123.137C960 118.46 1056 108.783 1152 101.525C1248 94.2675 1344 89.429 1392 87.0098L1440 84.5906V241.035H1392C1344 241.035 1248 241.035 1152 241.035C1056 241.035 960 241.035 864 241.035C768 241.035 672 241.035 576 241.035C480 241.035 384 241.035 288 241.035C192 241.035 96 241.035 48 241.035H0V98.2996Z"
            fill="#4E3A36" />
        <path
            d="M0 98.2996L48 100.477C96 102.574 192 106.928 288 111.767C384 116.605 480 121.928 576 124.75C672 127.573 768 127.895 864 123.137C960 118.46 1056 108.783 1152 101.525C1248 94.2675 1344 89.429 1392 87.0098L1440 84.5906V241.035H1392C1344 241.035 1248 241.035 1152 241.035C1056 241.035 960 241.035 864 241.035C768 241.035 672 241.035 576 241.035C480 241.035 384 241.035 288 241.035C192 241.035 96 241.035 48 241.035H0V98.2996Z"
            fill="black" fill-opacity="0.2" />
        <path
            d="M0 158.656L48 157.606C96 156.476 192 154.376 288 146.542C384 138.708 480 125.301 576 126.189C672 127.158 768 142.504 864 141.292C960 140.081 1056 122.313 1152 117.709C1248 113.186 1344 121.747 1392 126.109L1440 130.389V241.035H1392C1344 241.035 1248 241.035 1152 241.035C1056 241.035 960 241.035 864 241.035C768 241.035 672 241.035 576 241.035C480 241.035 384 241.035 288 241.035C192 241.035 96 241.035 48 241.035H0V158.656Z"
            fill="#573F3B" />
        <path
            d="M0 158.656L48 157.606C96 156.476 192 154.376 288 146.542C384 138.708 480 125.301 576 126.189C672 127.158 768 142.504 864 141.292C960 140.081 1056 122.313 1152 117.709C1248 113.186 1344 121.747 1392 126.109L1440 130.389V241.035H1392C1344 241.035 1248 241.035 1152 241.035C1056 241.035 960 241.035 864 241.035C768 241.035 672 241.035 576 241.035C480 241.035 384 241.035 288 241.035C192 241.035 96 241.035 48 241.035H0V158.656Z"
            fill="black" fill-opacity="0.2" />
        <path
            d="M0 170.805L48 168.545C96 166.204 192 161.683 288 157.485C384 153.288 480 149.574 576 145.942C672 142.309 768 138.757 864 138.111C960 137.466 1056 139.564 1152 142.39C1248 145.215 1344 148.767 1392 150.462L1440 152.238V241.035H1392C1344 241.035 1248 241.035 1152 241.035C1056 241.035 960 241.035 864 241.035C768 241.035 672 241.035 576 241.035C480 241.035 384 241.035 288 241.035C192 241.035 96 241.035 48 241.035H0V170.805Z"
            fill="#604540" />
        <path
            d="M0 170.805L48 168.545C96 166.204 192 161.683 288 157.485C384 153.288 480 149.574 576 145.942C672 142.309 768 138.757 864 138.111C960 137.466 1056 139.564 1152 142.39C1248 145.215 1344 148.767 1392 150.462L1440 152.238V241.035H1392C1344 241.035 1248 241.035 1152 241.035C1056 241.035 960 241.035 864 241.035C768 241.035 672 241.035 576 241.035C480 241.035 384 241.035 288 241.035C192 241.035 96 241.035 48 241.035H0V170.805Z"
            fill="black" fill-opacity="0.2" />
        <path
            d="M0 190.959L48 192.574C96 194.189 192 197.42 288 197.662C384 197.985 480 195.239 576 189.586C672 183.932 768 175.37 864 172.22C960 169.151 1056 171.574 1152 176.42C1248 181.266 1344 188.536 1392 192.17L1440 195.805V241.035H1392C1344 241.035 1248 241.035 1152 241.035C1056 241.035 960 241.035 864 241.035C768 241.035 672 241.035 576 241.035C480 241.035 384 241.035 288 241.035C192 241.035 96 241.035 48 241.035H0V190.959Z"
            fill="#694B45" />
        <path
            d="M0 190.959L48 192.574C96 194.189 192 197.42 288 197.662C384 197.985 480 195.239 576 189.586C672 183.932 768 175.37 864 172.22C960 169.151 1056 171.574 1152 176.42C1248 181.266 1344 188.536 1392 192.17L1440 195.805V241.035H1392C1344 241.035 1248 241.035 1152 241.035C1056 241.035 960 241.035 864 241.035C768 241.035 672 241.035 576 241.035C480 241.035 384 241.035 288 241.035C192 241.035 96 241.035 48 241.035H0V190.959Z"
            fill="black" fill-opacity="0.2" />
        <path
            d="M0 191.055L48 196.537C96 202.099 192 213.062 288 214.997C384 216.851 480 209.596 576 209.596C672 209.596 768 216.851 864 217.254C960 217.657 1056 211.208 1152 208.145C1248 205.001 1344 205.324 1392 205.404L1440 205.565V241.035H1392C1344 241.035 1248 241.035 1152 241.035C1056 241.035 960 241.035 864 241.035C768 241.035 672 241.035 576 241.035C480 241.035 384 241.035 288 241.035C192 241.035 96 241.035 48 241.035H0V191.055Z"
            fill="#463D3D" />
        <path
            d="M0 191.055L48 196.537C96 202.099 192 213.062 288 214.997C384 216.851 480 209.596 576 209.596C672 209.596 768 216.851 864 217.254C960 217.657 1056 211.208 1152 208.145C1248 205.001 1344 205.324 1392 205.404L1440 205.565V241.035H1392C1344 241.035 1248 241.035 1152 241.035C1056 241.035 960 241.035 864 241.035C768 241.035 672 241.035 576 241.035C480 241.035 384 241.035 288 241.035C192 241.035 96 241.035 48 241.035H0V191.055Z"
            fill="black" fill-opacity="0.2" />
    </g>
    <defs>
        <clipPath id="clip0_190_1913">
            <rect width="1440" height="241" fill="white" transform="matrix(1 0 0 -1 0 241.035)" />
        </clipPath>
    </defs>
</svg>